<?xml version="1.0" encoding="UTF-8"?>
<svg id="Layer_1" data-name="Layer 1" xmlns="http://www.w3.org/2000/svg" viewBox="0 0 2080.17 499.78">
  <defs>
    <style>
      .cls-1 {
        fill: #eae8e5;
      }
    </style>
  </defs>
  <g>
    <path class="cls-1" d="m1114.29,269.47v-101.57c0-45.07,1.37-61.31,21.05-61.31v-2.29h-61.77v2.29c19.67,0,21.05,16.24,21.05,61.31v101.57c0,45.07-1.37,61.31-21.05,61.31v2.29h61.77v-2.29c-19.68,0-21.05-16.24-21.05-61.31Z"/>
    <path class="cls-1" d="m1300.82,269.47v-51.93c0-48.04-40.72-51.01-61.08-51.01-13.04,0-41.63,4.57-60.39,4.57h-26.08v2.29c19.67,0,21.05,16.24,21.05,61.31v34.77c0,45.07-1.37,61.31-21.05,61.31v2.29h61.77v-2.29c-19.68,0-21.05-16.24-21.05-61.31v-93.11c10.98-3.89,23.79-6.63,35.46-6.63,15.56,0,51.47,1.37,51.47,52.62,0,0,.23,40.26.23,47.13,0,45.07-1.37,61.31-21.05,61.31v2.29h61.77v-2.29c-19.67,0-21.05-16.24-21.05-61.31Z"/>
    <path class="cls-1" d="m1351.39,201.99c0-17.16,16.47-33.17,45.3-33.17,24.48,0,44.61,14.41,53.53,40.72h.92v-26.99s-18.07-16.01-56.73-16.01-56.28,18.3-56.28,39.8c0,64.28,104.09,39.35,104.09,87.62,0,26.31-24.7,40.95-49.64,41.41-35.92.69-55.36-28.82-55.36-39.58h-2.29v27.91c14.64,9.38,33.4,13.95,57.65,13.95,35.46,0,68.17-13.04,68.17-46.67,0-63.37-109.35-41.64-109.35-88.99Z"/>
    <path class="cls-1" d="m1516.11,269.47v-98.37h-40.72v2.29c19.67,0,21.05,16.24,21.05,61.31v34.77c0,45.07-1.37,61.31-21.05,61.31v2.29h61.77v-2.29c-19.68,0-21.05-16.24-21.05-61.31Z"/>
    <circle class="cls-1" cx="1505.13" cy="141.14" r="15.33"/>
    <path class="cls-1" d="m1647.33,312.48c-21.73,0-36.6,10.98-58.33,10.98-7.78,0-16.7-3.89-16.7-11.44,0-28.37,114.15,1.14,114.15-82.36,0-27.22-18.07-53.07-49.41-60.85l49.41,5.03v-7.32h-69.09c-43.47,0-69.32,30.65-69.32,63.14,0,29.28,22.19,54.9,55.59,54.9,3.66,0,7.55-.23,11.44-.92v-2.06c-25.85,0-47.35-20.82-47.35-51.93s18.53-60.39,49.64-60.39,49.41,28.82,49.41,59.71c0,79.15-97,50.1-97,83.5,0,9.15,10.07,13.27,19.22,13.27,17.61,0,22.19-4.12,40.95-4.12,30.65,0,51.01,17.39,51.01,41.18,0,39.12-32.48,67.48-67.71,67.48s-59.25-17.84-59.25-44.61c0-11.21,11.21-18.98,21.5-18.98,20.82,0,29.74,10.06,46.67,10.06,19.68,0,27.91-19.68,19.22-30.65l-.92.23c2.29,8.47-8.24,11.44-13.73,11.44-21.28,0-29.74-10.06-50.79-10.06-17.84,0-35.46,13.5-35.46,33.63,0,33.85,30.43,51.24,72.29,51.24,53.07,0,85.33-31.8,85.33-71.6,0-27.45-23.79-48.5-50.79-48.5Z"/>
    <path class="cls-1" d="m1849.8,269.47v-51.93c0-48.04-40.72-51.01-61.08-51.01-10.06,0-37.52,3.89-45.75,3.89v-66.11h-40.72v2.29c19.67,0,21.05,16.24,21.05,61.31v101.57c0,45.07-1.37,61.31-21.05,61.31v2.29h61.77v-2.29c-19.68,0-21.05-16.24-21.05-61.31v-93.11c10.98-3.89,23.79-6.63,35.46-6.63,15.56,0,51.47,1.37,51.47,52.62,0,0,.23,40.26.23,47.13,0,45.07-1.37,61.31-21.05,61.31v2.29h61.77v-2.29c-19.67,0-21.05-16.24-21.05-61.31Z"/>
    <path class="cls-1" d="m1929.88,320.49s-6.18,10.75-13.27,10.75c-8.69,0-7.32-12.35-7.32-48.04v-109.81h17.38v-2.29h-17.38v-55.36h-2.29c0,15.56-.23,55.36-38.43,55.36v2.29h21.05v138.63c0,15.1,4.35,25.62,17.38,25.62,11.67,0,19.22-6.18,25.17-16.01l-2.29-1.14Z"/>
  </g>
  <g>
    <path class="cls-1" d="m150.07,134.25c0-15.34,28.85-27.71,68.23-27.71v163.03c0,45.11-1.37,61.37-21.07,61.37v2.29h59.77v-2.29c-19.69,0-19.23-16.26-19.23-61.37V106.55c39.38,0,68.24,12.36,68.24,27.71,0,.92-.23.23-.23.92h2.29v-30.91h-160.06v30.91h2.29c0-.69-.23,0-.23-.92Z"/>
    <path class="cls-1" d="m424.39,333.24h16.26v-2.29c-6.18,0-17.4-4.12-17.4-23.36,0-24.27-.23-27.71-.23-48.09,0-18.32-2.06-35.72-18.78-35.72-3.66,0-6.18,1.83-6.18,3.21,3.43.92,3.89,6.18,3.89,11.22,0,66.63-31.37,92.05-56.1,92.05-22.44,0-37.55-18.09-37.55-41.9,0-89.53,115.18-56.1,115.18-92.97,0-18.09-33.66-28.85-59.53-28.85-35.95,0-62.97,11.68-62.97,34.35,0,9.85,6.64,18.32,16.49,18.32,7.56,0,15.11-6.41,12.82-13.28-2.06,2.06-9.16-1.83-9.16-10.53,0-19.01,21.07-26.56,42.82-26.56,18.55,0,40.07,7.56,40.07,26.1,0,37.78-115.86,11.45-115.86,92.05,0,29.54,21.52,50.83,51.06,50.83,40.07,0,55.19-32.74,63.43-72.13v39.15c0,17.17,9.62,28.39,21.75,28.39Z"/>
    <path class="cls-1" d="m519.8,330.95c-19.69,0-21.07-16.26-21.07-61.37v-93.2c13.05-4.12,43.96-6.64,58.16-6.64,16.49,0,24.5,8.7,24.5,19.23,0,9.39-5.95,16.94-12.36,17.17,0,6.41,6.18,10.53,12.59,10.53,13.05,0,19.69-10.08,19.69-22.21,0-17.63-15.11-27.94-35.49-27.94-25.42,0-54.96,4.58-81.29,4.58h-26.56v2.29c19.69,0,21.07,16.26,21.07,61.37v34.8c0,45.11-1.37,61.37-21.07,61.37v2.29h61.82v-2.29Z"/>
    <path class="cls-1" d="m871.98,312.17c0,15.11,4.35,25.65,17.4,25.65,11.68,0,19.23-6.18,25.19-16.03l-2.29-1.14s-6.18,10.76-13.28,10.76c-8.7,0-7.33-12.36-7.33-48.09v-109.91h17.4v-2.29h-17.4v-55.41h-2.29c0,15.57-.23,55.41-38.47,55.41v2.29h21.07v138.76Z"/>
    <path class="cls-1" d="m701.07,305.4h2.25c0-14.92.22-53.09,36.86-53.09v-2.25c-36.64,0-36.86-38.17-36.86-53.09h-2.25c0,14.92-.22,53.09-36.86,53.09v2.25c36.64,0,36.86,38.17,36.86,53.09Z"/>
    <path class="cls-1" d="m634.99,305.25c8.09,5.5,21.79,13.4,21.79,13.4,0,0,0,0,0,0,11.95,9.18,27.17,14.6,45.2,14.6,47.17,0,75.69-36.86,75.69-82.05,0-16.01-3.64-30.93-10.36-43.58,5.63,10.55,14.95,18.65,26.12,22.92l12.6,4.81,42.99,16.42-67.83,25.9c-2.52,10.28-6.58,19.57-11.93,27.69,21.07-14.3,47.71-34.24,79.77-49.59,2.31-1.09,4.91-2.18,4.91-3.99s-2.6-2.9-4.91-3.99c-31.98-15.11-58.58-35.03-79.62-49.39-4.18-2.85-18.64-11.94-21.78-14.37-12.07-9.34-27.45-14.87-45.64-14.87-47.17,0-75.25,36.86-75.25,82.05,0,16.43,3.76,31.73,10.75,44.58-5.72-10.34-14.88-18.34-25.92-22.56l-27.83-10.63-28.36-10.83,67.81-25.9c2.55-10.47,6.69-19.9,12.16-28.12-21.17,14.18-47.93,34.18-79.97,50.02-2.31,1.09-4.91,2.18-4.91,3.99s2.6,2.9,4.91,3.99c31.98,15.31,58.57,35.21,79.62,49.5Zm66.99-133.48c34.01,0,57.04,31.15,57.04,79.42s-23.04,79.42-57.04,79.42-56.6-31.15-56.6-79.42,22.6-79.42,56.6-79.42Z"/>
  </g>
</svg>