<?xml version="1.0" encoding="UTF-8"?>
<svg id="Layer_1" data-name="Layer 1" xmlns="http://www.w3.org/2000/svg" viewBox="0 0 599.22 497.18">
  <defs>
    <style>
      .cls-1 {
        fill: #131319;
      }
    </style>
  </defs>
  <path class="cls-1" d="m299.98,325.54h3.2c0-21.17.31-75.35,52.31-75.35v-3.2c-51.99,0-52.31-54.17-52.31-75.35h-3.2c0,21.17-.31,75.35-52.31,75.35v3.2c51.99,0,52.31,54.17,52.31,75.35Z"/>
  <path class="cls-1" d="m206.2,325.31c11.49,7.8,30.93,19.01,30.93,19.01,0,0,0,0,0,0,16.96,13.03,38.55,20.72,64.14,20.72,66.94,0,107.41-52.31,107.41-116.44,0-22.72-5.17-43.89-14.71-61.84,7.99,14.97,21.22,26.47,37.07,32.52l17.89,6.83,61.02,23.3-96.26,36.76c-3.58,14.59-9.34,27.77-16.94,39.29,29.9-20.29,67.71-48.6,113.2-70.38,3.28-1.55,6.97-3.09,6.97-5.66s-3.69-4.12-6.97-5.67c-45.38-21.44-83.13-49.72-113-70.09-5.93-4.05-26.45-16.94-30.91-20.39-17.13-13.25-38.95-21.11-64.77-21.11-66.94,0-106.79,52.31-106.79,116.44,0,23.32,5.33,45.03,15.25,63.27-8.11-14.67-21.11-26.03-36.78-32.01l-39.49-15.08-40.24-15.37,96.24-36.75c3.62-14.85,9.5-28.24,17.25-39.9-30.04,20.13-68.02,48.51-113.49,70.99-3.28,1.54-6.97,3.09-6.97,5.67s3.69,4.12,6.97,5.66c45.38,21.73,83.12,49.97,112.99,70.25Zm95.06-189.43c48.26,0,80.95,44.21,80.95,112.71s-32.69,112.71-80.95,112.71-80.33-44.21-80.33-112.71,32.07-112.71,80.33-112.71Z"/>
</svg>