<?xml version="1.0" encoding="UTF-8"?>
<svg id="Layer_1" data-name="Layer 1" xmlns="http://www.w3.org/2000/svg" viewBox="0 0 1080 729.66">
  <defs>
    <style>
      .cls-1 {
        fill: #131319;
      }
    </style>
  </defs>
  <g>
    <path class="cls-1" d="m189.3,496.93v-91.67c0-40.67,1.24-55.33,18.99-55.33v-2.07h-55.75v2.07c17.76,0,18.99,14.66,18.99,55.33v91.67c0,40.67-1.24,55.33-18.99,55.33v2.07h55.75v-2.07c-17.76,0-18.99-14.66-18.99-55.33Z"/>
    <path class="cls-1" d="m357.65,496.93v-46.87c0-43.36-36.75-46.04-55.13-46.04-11.77,0-37.58,4.13-54.51,4.13h-23.54v2.07c17.76,0,18.99,14.66,18.99,55.33v31.38c0,40.67-1.24,55.33-18.99,55.33v2.07h55.75v-2.07c-17.76,0-19-14.66-19-55.33v-84.03c9.91-3.51,21.47-5.99,32-5.99,14.04,0,46.46,1.24,46.46,47.49,0,0,.21,36.34.21,42.53,0,40.67-1.24,55.33-19,55.33v2.07h55.75v-2.07c-17.76,0-18.99-14.66-18.99-55.33Z"/>
    <path class="cls-1" d="m403.29,436.02c0-15.49,14.87-29.94,40.88-29.94,22.09,0,40.26,13.01,48.31,36.75h.83v-24.36s-16.31-14.45-51.2-14.45-50.79,16.52-50.79,35.92c0,58.02,93.94,35.51,93.94,79.08,0,23.75-22.3,36.96-44.8,37.37-32.42.62-49.96-26.01-49.96-35.72h-2.07v25.19c13.21,8.46,30.15,12.59,52.03,12.59,32,0,61.53-11.77,61.53-42.12,0-57.19-98.69-37.58-98.69-80.32Z"/>
    <path class="cls-1" d="m551.96,496.93v-88.78h-36.75v2.07c17.76,0,18.99,14.66,18.99,55.33v31.38c0,40.67-1.24,55.33-18.99,55.33v2.07h55.75v-2.07c-17.76,0-18.99-14.66-18.99-55.33Z"/>
    <circle class="cls-1" cx="542.05" cy="381.1" r="13.83"/>
    <path class="cls-1" d="m670.39,535.75c-19.61,0-33.03,9.91-52.65,9.91-7.02,0-15.07-3.51-15.07-10.32,0-25.6,103.03,1.03,103.03-74.33,0-24.57-16.31-47.9-44.6-54.92l44.6,4.54v-6.61h-62.35c-39.23,0-62.56,27.67-62.56,56.98,0,26.43,20.03,49.55,50.17,49.55,3.3,0,6.81-.21,10.32-.83v-1.86c-23.33,0-42.74-18.79-42.74-46.87s16.72-54.51,44.8-54.51,44.6,26.01,44.6,53.89c0,71.44-87.54,45.22-87.54,75.36,0,8.26,9.09,11.98,17.34,11.98,15.9,0,20.03-3.72,36.96-3.72,27.67,0,46.04,15.69,46.04,37.16,0,35.3-29.32,60.91-61.11,60.91s-53.47-16.1-53.47-40.26c0-10.12,10.12-17.13,19.41-17.13,18.79,0,26.84,9.08,42.12,9.08,17.76,0,25.19-17.76,17.34-27.67l-.83.21c2.06,7.64-7.43,10.32-12.39,10.32-19.2,0-26.84-9.08-45.84-9.08-16.11,0-32,12.18-32,30.35,0,30.55,27.46,46.25,65.25,46.25,47.9,0,77.01-28.7,77.01-64.62,0-24.78-21.47-43.77-45.84-43.77Z"/>
    <path class="cls-1" d="m853.12,496.93v-46.87c0-43.36-36.75-46.04-55.13-46.04-9.08,0-33.86,3.51-41.29,3.51v-75.22s-7.2,6.85-17.41,12.25-19.34,7.72-19.34,7.72v2.07c17.76,0,18.99,10.24,18.99,50.91v91.67c0,40.67-1.24,55.33-18.99,55.33v2.07h55.75v-2.07c-17.76,0-18.99-14.66-18.99-55.33v-84.03c9.91-3.51,21.47-5.99,32-5.99,14.04,0,46.46,1.24,46.46,47.49,0,0,.21,36.34.21,42.53,0,40.67-1.24,55.33-19,55.33v2.07h55.75v-2.07c-17.76,0-18.99-14.66-18.99-55.33Z"/>
    <path class="cls-1" d="m925.39,542.97s-5.57,9.7-11.97,9.7c-7.85,0-6.61-11.15-6.61-43.36v-99.1h15.69v-2.07h-15.69v-49.96h-2.07c0,14.04-.21,49.96-34.69,49.96v2.07h19v125.12c0,13.62,3.92,23.13,15.69,23.13,10.53,0,17.34-5.58,22.71-14.45l-2.07-1.03Z"/>
  </g>
  <g>
    <path class="cls-1" d="m174.64,160.7c0-14.58,27.42-26.33,64.84-26.33v154.93c0,42.87-1.3,58.32-20.02,58.32v2.18h56.8v-2.18c-18.71,0-18.28-15.45-18.28-58.32v-154.93c37.43,0,64.85,11.75,64.85,26.33,0,.87-.22.22-.22.87h2.17v-29.38h-152.1v29.38h2.18c0-.65-.22,0-.22-.87Z"/>
    <path class="cls-1" d="m435.33,349.79h15.45v-2.18c-5.88,0-16.54-3.92-16.54-22.2,0-23.07-.22-26.33-.22-45.7,0-17.41-1.96-33.95-17.85-33.95-3.48,0-5.87,1.74-5.87,3.05,3.26.87,3.7,5.87,3.7,10.66,0,63.32-29.81,87.47-53.31,87.47-21.33,0-35.69-17.19-35.69-39.82,0-85.08,109.45-53.31,109.45-88.35,0-17.19-31.99-27.42-56.58-27.42-34.16,0-59.84,11.1-59.84,32.64,0,9.36,6.31,17.41,15.67,17.41,7.18,0,14.36-6.09,12.19-12.62-1.96,1.96-8.7-1.74-8.7-10.01,0-18.06,20.02-25.24,40.69-25.24,17.63,0,38.08,7.18,38.08,24.81,0,35.91-110.11,10.88-110.11,87.48,0,28.07,20.45,48.31,48.52,48.31,38.08,0,52.44-31.12,60.28-68.54v37.21c0,16.32,9.14,26.98,20.67,26.98Z"/>
    <path class="cls-1" d="m526.01,347.62c-18.71,0-20.02-15.45-20.02-58.32v-88.57c12.4-3.91,41.78-6.31,55.27-6.31,15.67,0,23.28,8.27,23.28,18.28,0,8.92-5.66,16.1-11.75,16.32,0,6.09,5.87,10.01,11.97,10.01,12.4,0,18.71-9.57,18.71-21.11,0-16.75-14.36-26.55-33.73-26.55-24.15,0-52.22,4.35-77.25,4.35h-25.24v2.18c18.71,0,20.02,15.45,20.02,58.32v33.08c0,42.87-1.31,58.32-20.02,58.32v2.18h58.75v-2.18Z"/>
    <path class="cls-1" d="m860.69,329.77c0,14.36,4.14,24.37,16.54,24.37,11.1,0,18.28-5.87,23.94-15.23l-2.18-1.09s-5.88,10.23-12.62,10.23c-8.27,0-6.96-11.75-6.96-45.7v-104.45h16.54v-2.18h-16.54v-52.66h-2.18c0,14.8-.22,52.66-36.56,52.66v2.18h20.02v131.87Z"/>
    <path class="cls-1" d="m698.27,323.34h2.14c0-14.18.21-50.45,35.03-50.45v-2.14c-34.82,0-35.03-36.28-35.03-50.45h-2.14c0,14.18-.21,50.45-35.03,50.45v2.14c34.82,0,35.03,36.28,35.03,50.45Z"/>
    <path class="cls-1" d="m635.47,323.19c7.69,5.22,20.71,12.73,20.71,12.73,0,0,0,0,0,0,11.36,8.72,25.82,13.87,42.95,13.87,44.83,0,71.93-35.03,71.93-77.97,0-15.22-3.46-29.39-9.85-41.41,5.35,10.02,14.21,17.72,24.82,21.78l11.98,4.57,40.86,15.6-64.46,24.61c-2.4,9.77-6.26,18.6-11.34,26.31,20.02-13.59,45.34-32.54,75.8-47.13,2.2-1.04,4.67-2.07,4.67-3.79s-2.47-2.76-4.67-3.79c-30.39-14.36-55.67-33.29-75.67-46.93-3.97-2.71-17.71-11.35-20.7-13.66-11.47-8.88-26.08-14.13-43.38-14.13-44.83,0-71.51,35.03-71.51,77.98,0,15.61,3.57,30.15,10.21,42.37-5.43-9.82-14.14-17.43-24.63-21.44l-26.45-10.1-26.95-10.29,64.44-24.61c2.43-9.95,6.36-18.91,11.55-26.72-20.12,13.48-45.55,32.48-76,47.54-2.2,1.03-4.67,2.07-4.67,3.79s2.47,2.76,4.67,3.79c30.39,14.55,55.66,33.46,75.66,47.04Zm63.66-126.85c32.32,0,54.21,29.61,54.21,75.47s-21.89,75.47-54.21,75.47-53.79-29.61-53.79-75.47,21.47-75.47,53.79-75.47Z"/>
  </g>
</svg>